<svg width="118" height="28" viewBox="0 0 118 28" fill="none" xmlns="http://www.w3.org/2000/svg">
<circle r="7" transform="matrix(-1 0 0 1 21 21)" fill="#4D96A9"/>
<circle r="7" transform="matrix(-1 0 0 1 7 7)" fill="#855FB1"/>
<path fill-rule="evenodd" clip-rule="evenodd" d="M116.072 25.757C115.355 25.8542 114.754 25.9028 114.27 25.9028C112.268 25.9028 110.755 25.4439 109.733 24.5261C108.711 23.6082 108.2 22.2531 108.2 20.4606V12.9127H104.818V8.53944H108.2V4.1338L113.321 3V8.53944H118V12.9127H113.321V19.4239C113.321 20.1798 113.485 20.7143 113.811 21.0275C114.138 21.3406 114.712 21.4972 115.534 21.4972C115.935 21.4972 116.314 21.4702 116.672 21.4162C117.031 21.3622 117.42 21.2704 117.842 21.1408V25.3845C117.378 25.5357 116.788 25.6599 116.072 25.757ZM44.1212 13.9493V25.6761H39V8.53944H44.1212V9.64084C44.7114 9.16573 45.3594 8.80939 46.0654 8.57183C46.7714 8.33427 47.5143 8.21549 48.2941 8.21549C49.3268 8.21549 50.2699 8.42606 51.1234 8.84718C51.977 9.26831 52.6883 9.84601 53.2573 10.5803C53.9317 9.82441 54.7326 9.24131 55.6599 8.83099C56.5872 8.42066 57.5988 8.21549 58.6947 8.21549C60.5914 8.21549 62.1457 8.86338 63.3575 10.1592C64.5694 11.4549 65.1753 13.107 65.1753 15.1155V25.6761H60.054V15.8282C60.054 14.8995 59.8064 14.1491 59.3111 13.5768C58.8159 13.0045 58.1573 12.7183 57.3353 12.7183C56.7663 12.7183 56.25 12.8317 55.7863 13.0585C55.3227 13.2852 54.9222 13.6038 54.585 14.0141C54.6061 14.1869 54.6219 14.365 54.6325 14.5486C54.643 14.7322 54.6483 14.9211 54.6483 15.1155V25.6761H49.527V15.8282C49.527 14.8995 49.2794 14.1491 48.7841 13.5768C48.2888 13.0045 47.6303 12.7183 46.8083 12.7183C46.2393 12.7183 45.7282 12.8209 45.2751 13.0261C44.822 13.2312 44.4374 13.539 44.1212 13.9493ZM80.3019 25.3845C79.1955 25.7948 77.9468 26 76.5558 26C75.2913 26 74.1006 25.7732 72.9836 25.3197C71.8666 24.8662 70.9024 24.2399 70.091 23.4408C69.2796 22.6418 68.6369 21.6969 68.1627 20.6063C67.6885 19.5157 67.4514 18.3549 67.4514 17.1239C67.4514 15.893 67.6779 14.7322 68.1311 13.6415C68.5842 12.5509 69.2006 11.6061 69.9804 10.807C70.7602 10.008 71.6822 9.38169 72.7465 8.92817C73.8108 8.47465 74.9541 8.24789 76.1765 8.24789C77.3988 8.24789 78.5263 8.48545 79.559 8.96056C80.5917 9.43568 81.4821 10.0836 82.2303 10.9042C82.9785 11.7249 83.5633 12.7129 83.9848 13.8683C84.4063 15.0237 84.617 16.2709 84.617 17.6099V18.9056H72.6991C73.0363 19.7047 73.5632 20.358 74.2797 20.8655C74.9963 21.373 75.8393 21.6268 76.8087 21.6268C77.5042 21.6268 78.1365 21.5134 78.7055 21.2866C79.2745 21.0599 79.7592 20.7413 80.1597 20.331L83.5422 23.4085C82.4885 24.3155 81.4084 24.9742 80.3019 25.3845ZM79.5906 15.2451H72.6042C72.8571 14.3812 73.2892 13.7117 73.9004 13.2366C74.5115 12.7615 75.2386 12.5239 76.0816 12.5239C76.9036 12.5239 77.6254 12.7723 78.2471 13.269C78.8688 13.7657 79.3167 14.4244 79.5906 15.2451ZM99.1114 25.3845C98.005 25.7948 96.7563 26 95.3653 26C94.1008 26 92.9101 25.7732 91.7931 25.3197C90.6761 24.8662 89.712 24.2399 88.9006 23.4408C88.0892 22.6418 87.4464 21.6969 86.9722 20.6063C86.498 19.5157 86.2609 18.3549 86.2609 17.1239C86.2609 15.893 86.4875 14.7322 86.9406 13.6415C87.3937 12.5509 88.0101 11.6061 88.7899 10.807C89.5697 10.008 90.4917 9.38169 91.556 8.92817C92.6203 8.47465 93.7636 8.24789 94.986 8.24789C96.2084 8.24789 97.3359 8.48545 98.3685 8.96056C99.4012 9.43568 100.292 10.0836 101.04 10.9042C101.788 11.7249 102.373 12.7129 102.794 13.8683C103.216 15.0237 103.427 16.2709 103.427 17.6099V18.9056H91.5086C91.8458 19.7047 92.3727 20.358 93.0892 20.8655C93.8058 21.373 94.6488 21.6268 95.6182 21.6268C96.3137 21.6268 96.946 21.5134 97.515 21.2866C98.084 21.0599 98.5688 20.7413 98.9692 20.331L102.352 23.4085C101.298 24.3155 100.218 24.9742 99.1114 25.3845ZM98.4002 15.2451H91.4138C91.6667 14.3812 92.0987 13.7117 92.7099 13.2366C93.3211 12.7615 94.0482 12.5239 94.8912 12.5239C95.7131 12.5239 96.4349 12.7723 97.0566 13.269C97.6783 13.7657 98.1262 14.4244 98.4002 15.2451Z" fill="#28283D"/>
</svg>
