<svg width="79" height="23" viewBox="0 0 79 23" fill="none" xmlns="http://www.w3.org/2000/svg">
<path fill-rule="evenodd" clip-rule="evenodd" d="M77.0716 22.757C76.3551 22.8542 75.7544 22.9028 75.2697 22.9028C73.2676 22.9028 71.7554 22.4439 70.7333 21.5261C69.7112 20.6082 69.2001 19.2531 69.2001 17.4606V9.91268H65.8175V5.53944H69.2001V1.1338L74.3213 0V5.53944H79V9.91268H74.3213V16.4239C74.3213 17.1798 74.4847 17.7143 74.8113 18.0275C75.138 18.3406 75.7123 18.4972 76.5342 18.4972C76.9346 18.4972 77.314 18.4702 77.6723 18.4162C78.0305 18.3622 78.4204 18.2704 78.8419 18.1408V22.3845C78.3783 22.5357 77.7882 22.6599 77.0716 22.757ZM5.12125 10.9493V22.6761H0V5.53944H5.12125V6.64084C5.71135 6.16573 6.35941 5.80939 7.06543 5.57183C7.77144 5.33427 8.51434 5.21549 9.29412 5.21549C10.3268 5.21549 11.2699 5.42606 12.1234 5.84718C12.977 6.26831 13.6883 6.84601 14.2573 7.58028C14.9317 6.82441 15.7326 6.24131 16.6599 5.83099C17.5872 5.42066 18.5988 5.21549 19.6947 5.21549C21.5914 5.21549 23.1457 5.86338 24.3575 7.15915C25.5694 8.45493 26.1753 10.107 26.1753 12.1155V22.6761H21.054V12.8282C21.054 11.8995 20.8064 11.1491 20.3111 10.5768C19.8159 10.0045 19.1573 9.71831 18.3353 9.71831C17.7663 9.71831 17.25 9.83169 16.7863 10.0585C16.3227 10.2852 15.9222 10.6038 15.585 11.0141C15.6061 11.1869 15.6219 11.365 15.6325 11.5486C15.643 11.7322 15.6483 11.9211 15.6483 12.1155V22.6761H10.527V12.8282C10.527 11.8995 10.2794 11.1491 9.78411 10.5768C9.28885 10.0045 8.63025 9.71831 7.80832 9.71831C7.2393 9.71831 6.72822 9.82089 6.27511 10.0261C5.822 10.2312 5.43738 10.539 5.12125 10.9493ZM41.3019 22.3845C40.1955 22.7948 38.9468 23 37.5558 23C36.2913 23 35.1006 22.7732 33.9836 22.3197C32.8666 21.8662 31.9024 21.2399 31.091 20.4408C30.2796 19.6418 29.6369 18.6969 29.1627 17.6063C28.6885 16.5157 28.4514 15.3549 28.4514 14.1239C28.4514 12.893 28.6779 11.7322 29.1311 10.6415C29.5842 9.55094 30.2006 8.6061 30.9804 7.80704C31.7602 7.00798 32.6822 6.38169 33.7465 5.92817C34.8108 5.47465 35.9541 5.24789 37.1765 5.24789C38.3988 5.24789 39.5263 5.48545 40.559 5.96056C41.5917 6.43568 42.4821 7.08357 43.2303 7.90423C43.9785 8.72488 44.5633 9.71291 44.9848 10.8683C45.4063 12.0237 45.617 13.2709 45.617 14.6099V15.9056H33.6991C34.0363 16.7047 34.5632 17.358 35.2797 17.8655C35.9963 18.373 36.8393 18.6268 37.8087 18.6268C38.5042 18.6268 39.1365 18.5134 39.7055 18.2866C40.2745 18.0599 40.7592 17.7413 41.1597 17.331L44.5422 20.4085C43.4885 21.3155 42.4084 21.9742 41.3019 22.3845ZM40.5906 12.2451H33.6042C33.8571 11.3812 34.2892 10.7117 34.9004 10.2366C35.5115 9.7615 36.2386 9.52394 37.0816 9.52394C37.9036 9.52394 38.6254 9.7723 39.2471 10.269C39.8688 10.7657 40.3167 11.4244 40.5906 12.2451ZM60.1114 22.3845C59.005 22.7948 57.7563 23 56.3653 23C55.1008 23 53.9101 22.7732 52.7931 22.3197C51.6761 21.8662 50.712 21.2399 49.9006 20.4408C49.0892 19.6418 48.4464 18.6969 47.9722 17.6063C47.498 16.5157 47.2609 15.3549 47.2609 14.1239C47.2609 12.893 47.4875 11.7322 47.9406 10.6415C48.3937 9.55094 49.0101 8.6061 49.7899 7.80704C50.5697 7.00798 51.4917 6.38169 52.556 5.92817C53.6203 5.47465 54.7636 5.24789 55.986 5.24789C57.2084 5.24789 58.3359 5.48545 59.3685 5.96056C60.4012 6.43568 61.2917 7.08357 62.0398 7.90423C62.788 8.72488 63.3728 9.71291 63.7943 10.8683C64.2158 12.0237 64.4266 13.2709 64.4266 14.6099V15.9056H52.5086C52.8458 16.7047 53.3727 17.358 54.0892 17.8655C54.8058 18.373 55.6488 18.6268 56.6182 18.6268C57.3137 18.6268 57.946 18.5134 58.515 18.2866C59.084 18.0599 59.5688 17.7413 59.9692 17.331L63.3517 20.4085C62.298 21.3155 61.2179 21.9742 60.1114 22.3845ZM59.4002 12.2451H52.4138C52.6667 11.3812 53.0987 10.7117 53.7099 10.2366C54.3211 9.7615 55.0482 9.52394 55.8912 9.52394C56.7131 9.52394 57.4349 9.7723 58.0566 10.269C58.6783 10.7657 59.1262 11.4244 59.4002 12.2451Z" fill="#28283D"/>
</svg>
